# Blender 5.1.0
# www.blender.org
mtllib Strada.mtl
o BézierCurve
v -1.000000 0.000000 0.000000
v -0.653851 0.000000 -0.003370
v -0.296537 0.000000 -0.007132
v 0.068222 0.000000 -0.011155
v 0.436702 0.000000 -0.015308
v 0.805182 0.000000 -0.019461
v 1.169940 0.000000 -0.023483
v 1.527255 0.000000 -0.027245
v 1.873403 0.000000 -0.030615
v 2.204664 0.000000 -0.033464
v 2.517316 0.000000 -0.035660
v 2.807637 0.000000 -0.037073
v 3.071904 0.000000 -0.037573
v 3.367998 0.000000 -0.037023
v 3.745143 0.000000 -0.035446
v 4.186628 0.000000 -0.032953
v 4.675746 0.000000 -0.029657
v 5.195789 0.000000 -0.025666
v 5.730047 0.000000 -0.021094
v 6.261813 0.000000 -0.016051
v 6.774377 0.000000 -0.010648
v 7.251031 0.000000 -0.004996
v 7.675068 0.000000 0.000794
v 8.029778 0.000000 0.006610
v 8.298451 0.000000 0.012341
v 8.600784 0.000000 0.019292
v 8.995323 0.000000 0.027165
v 9.463130 0.000000 0.035746
v 9.985267 0.000000 0.044819
v 10.542795 0.000000 0.054171
v 11.116777 0.000000 0.063585
v 11.688276 0.000000 0.072848
v 12.238354 0.000000 0.081744
v 12.748072 0.000000 0.090059
v 13.198492 0.000000 0.097578
v 13.570677 0.000000 0.104086
v 13.845687 0.000000 0.109368
v 14.315230 0.000829 0.157484
v 15.172082 0.003015 0.281232
v 16.338408 0.006105 0.465381
v 17.736374 0.009648 0.694698
v 19.288149 0.013191 0.953950
v 20.915897 0.016281 1.227904
v 22.541784 0.018467 1.501327
v 24.087978 0.019296 1.758986
v 25.476645 0.018316 1.985650
v 26.629950 0.015075 2.166084
v 27.470058 0.009120 2.285056
v 27.919138 0.000000 2.327334
v 29.140608 -0.050655 2.267223
v 30.275898 -0.083727 2.110807
v 31.323936 -0.101728 1.874849
v 32.283653 -0.107171 1.576108
v 33.153976 -0.102566 1.231346
v 33.933838 -0.090425 0.857325
v 34.622162 -0.073261 0.470806
v 35.217880 -0.053585 0.088549
v 35.719921 -0.033910 -0.272685
v 36.127213 -0.016746 -0.596133
v 36.438686 -0.004605 -0.865034
v 36.653282 0.000000 -1.062630
l 1 2
l 2 3
l 3 4
l 4 5
l 5 6
l 6 7
l 7 8
l 8 9
l 9 10
l 10 11
l 11 12
l 12 13
l 13 14
l 14 15
l 15 16
l 16 17
l 17 18
l 18 19
l 19 20
l 20 21
l 21 22
l 22 23
l 23 24
l 24 25
l 25 26
l 26 27
l 27 28
l 28 29
l 29 30
l 30 31
l 31 32
l 32 33
l 33 34
l 34 35
l 35 36
l 36 37
l 37 38
l 38 39
l 39 40
l 40 41
l 41 42
l 42 43
l 43 44
l 44 45
l 45 46
l 46 47
l 47 48
l 48 49
l 49 50
l 50 51
l 51 52
l 52 53
l 53 54
l 54 55
l 55 56
l 56 57
l 57 58
l 58 59
l 59 60
l 60 61
o Cube
v -1.000000 0.139341 3.566725
v -1.000000 -0.139341 3.566725
v -1.000000 0.139341 -3.566725
v -1.000000 -0.139341 -3.566725
v 4.413393 0.139341 3.566725
v 4.413393 -0.139341 3.566725
v 4.413393 0.139341 -3.566725
v 4.413393 -0.139341 -3.566725
v 3.921267 0.139341 -3.566725
v 3.429140 0.139341 -3.566725
v 2.937013 0.139341 -3.566725
v 2.444887 0.139341 -3.566725
v 1.952760 0.139341 -3.566725
v 1.460633 0.139341 -3.566725
v 0.968507 0.139341 -3.566725
v 0.476380 0.139341 -3.566725
v -0.015747 0.139341 -3.566725
v -0.507873 0.139341 -3.566725
v -0.507873 -0.139341 -3.566725
v -0.015747 -0.139341 -3.566725
v 0.476380 -0.139341 -3.566725
v 0.968507 -0.139341 -3.566725
v 1.460633 -0.139341 -3.566725
v 1.952760 -0.139341 -3.566725
v 2.444887 -0.139341 -3.566725
v 2.937013 -0.139341 -3.566725
v 3.429140 -0.139341 -3.566725
v 3.921267 -0.139341 -3.566725
v -0.507873 0.139341 3.566725
v -0.015747 0.139341 3.566725
v 0.476380 0.139341 3.566725
v 0.968507 0.139341 3.566725
v 1.460633 0.139341 3.566725
v 1.952760 0.139341 3.566725
v 2.444887 0.139341 3.566725
v 2.937013 0.139341 3.566725
v 3.429140 0.139341 3.566725
v 3.921267 0.139341 3.566725
v 3.921267 -0.139341 3.566725
v 3.429140 -0.139341 3.566725
v 2.937013 -0.139341 3.566725
v 2.444887 -0.139341 3.566725
v 1.952760 -0.139341 3.566725
v 1.460633 -0.139341 3.566725
v 0.968507 -0.139341 3.566725
v 0.476380 -0.139341 3.566725
v -0.015747 -0.139341 3.566725
v -0.507873 -0.139341 3.566725
v 4.413393 0.139341 3.566725
v 4.413393 -0.139341 3.566725
v 4.413393 0.139341 -3.566725
v 4.413393 -0.139341 -3.566725
v 9.826787 0.139341 3.566725
v 9.826787 -0.139341 3.566725
v 9.826787 0.139341 -3.566725
v 9.826787 -0.139341 -3.566725
v 9.334661 0.139341 -3.566725
v 8.842533 0.139341 -3.566725
v 8.350407 0.139341 -3.566725
v 7.858280 0.139341 -3.566725
v 7.366154 0.139341 -3.566725
v 6.874027 0.139341 -3.566725
v 6.381900 0.139341 -3.566725
v 5.889773 0.139341 -3.566725
v 5.397647 0.139341 -3.566725
v 4.905520 0.139341 -3.566725
v 4.905520 -0.139341 -3.566725
v 5.397647 -0.139341 -3.566725
v 5.889773 -0.139341 -3.566725
v 6.381900 -0.139341 -3.566725
v 6.874027 -0.139341 -3.566725
v 7.366154 -0.139341 -3.566725
v 7.858280 -0.139341 -3.566725
v 8.350407 -0.139341 -3.566725
v 8.842533 -0.139341 -3.566725
v 9.334661 -0.139341 -3.566725
v 4.905520 0.139341 3.566725
v 5.397647 0.139341 3.566725
v 5.889773 0.139341 3.566725
v 6.381900 0.139341 3.566725
v 6.874027 0.139341 3.566725
v 7.366154 0.139341 3.566725
v 7.858280 0.139341 3.566725
v 8.350407 0.139341 3.566725
v 8.842533 0.139341 3.566725
v 9.334661 0.139341 3.566725
v 9.334661 -0.139341 3.566725
v 8.842533 -0.139341 3.566725
v 8.350407 -0.139341 3.566725
v 7.858280 -0.139341 3.566725
v 7.366154 -0.139341 3.566725
v 6.874027 -0.139341 3.566725
v 6.381900 -0.139341 3.566725
v 5.889773 -0.139341 3.566725
v 5.397647 -0.139341 3.566725
v 4.905520 -0.139341 3.566725
v 9.826787 0.139341 3.566725
v 9.826787 -0.139341 3.566725
v 9.826787 0.139341 -3.566725
v 9.826787 -0.139341 -3.566725
v 15.240181 0.139341 3.566725
v 15.240181 -0.139341 3.566725
v 15.240181 0.139341 -3.566725
v 15.240181 -0.139341 -3.566725
v 14.748054 0.139341 -3.566725
v 14.255927 0.139341 -3.566725
v 13.763801 0.139341 -3.566725
v 13.271673 0.139341 -3.566725
v 12.779547 0.139341 -3.566725
v 12.287420 0.139341 -3.566725
v 11.795294 0.139341 -3.566725
v 11.303167 0.139341 -3.566725
v 10.811040 0.139341 -3.566725
v 10.318913 0.139341 -3.566725
v 10.318913 -0.139341 -3.566725
v 10.811040 -0.139341 -3.566725
v 11.303167 -0.139341 -3.566725
v 11.795294 -0.139341 -3.566725
v 12.287420 -0.139341 -3.566725
v 12.779547 -0.139341 -3.566725
v 13.271673 -0.139341 -3.566725
v 13.763801 -0.139341 -3.566725
v 14.255927 -0.139341 -3.566725
v 14.748054 -0.139341 -3.566725
v 10.318913 0.139341 3.566725
v 10.811040 0.139341 3.566725
v 11.303167 0.139341 3.566725
v 11.795294 0.139341 3.566725
v 12.287420 0.139341 3.566725
v 12.779547 0.139341 3.566725
v 13.271673 0.139341 3.566725
v 13.763801 0.139341 3.566725
v 14.255927 0.139341 3.566725
v 14.748054 0.139341 3.566725
v 14.748054 -0.139341 3.566725
v 14.255927 -0.139341 3.566725
v 13.763801 -0.139341 3.566725
v 13.271673 -0.139341 3.566725
v 12.779547 -0.139341 3.566725
v 12.287420 -0.139341 3.566725
v 11.795294 -0.139341 3.566725
v 11.303167 -0.139341 3.566725
v 10.811040 -0.139341 3.566725
v 10.318913 -0.139341 3.566725
v 15.240181 0.139341 3.566725
v 15.240181 -0.139341 3.566725
v 15.240181 0.139341 -3.566725
v 15.240181 -0.139341 -3.566725
v 20.653574 0.139341 3.566725
v 20.653574 -0.139341 3.566725
v 20.653574 0.139341 -3.566725
v 20.653574 -0.139341 -3.566725
v 20.161448 0.139341 -3.566725
v 19.669321 0.139341 -3.566725
v 19.177195 0.139341 -3.566725
v 18.685068 0.139341 -3.566725
v 18.192942 0.139341 -3.566725
v 17.700813 0.139341 -3.566725
v 17.208687 0.139341 -3.566725
v 16.716560 0.139341 -3.566725
v 16.224434 0.139341 -3.566725
v 15.732307 0.139341 -3.566725
v 15.732307 -0.139341 -3.566725
v 16.224434 -0.139341 -3.566725
v 16.716560 -0.139341 -3.566725
v 17.208687 -0.139341 -3.566725
v 17.700815 -0.139341 -3.566725
v 18.192942 -0.139341 -3.566725
v 18.685068 -0.139341 -3.566725
v 19.177195 -0.139341 -3.566725
v 19.669321 -0.139341 -3.566725
v 20.161448 -0.139341 -3.566725
v 15.732307 0.139341 3.566725
v 16.224434 0.139341 3.566725
v 16.716560 0.139341 3.566725
v 17.208687 0.139341 3.566725
v 17.700815 0.139341 3.566725
v 18.192942 0.139341 3.566725
v 18.685068 0.139341 3.566725
v 19.177195 0.139341 3.566725
v 19.669321 0.139341 3.566725
v 20.161448 0.139341 3.566725
v 20.161448 -0.139341 3.566725
v 19.669321 -0.139341 3.566725
v 19.177195 -0.139341 3.566725
v 18.685068 -0.139341 3.566725
v 18.192942 -0.139341 3.566725
v 17.700813 -0.139341 3.566725
v 17.208687 -0.139341 3.566725
v 16.716560 -0.139341 3.566725
v 16.224434 -0.139341 3.566725
v 15.732307 -0.139341 3.566725
v 20.653574 0.139341 3.566725
v 20.653574 -0.139341 3.566725
v 20.653574 0.139341 -3.566725
v 20.653574 -0.139341 -3.566725
v 26.066967 0.139341 3.566725
v 26.066967 -0.139341 3.566725
v 26.066967 0.139341 -3.566725
v 26.066967 -0.139341 -3.566725
v 25.574841 0.139341 -3.566725
v 25.082714 0.139341 -3.566725
v 24.590588 0.139341 -3.566725
v 24.098461 0.139341 -3.566725
v 23.606335 0.139341 -3.566725
v 23.114208 0.139341 -3.566725
v 22.622080 0.139341 -3.566725
v 22.129953 0.139341 -3.566725
v 21.637827 0.139341 -3.566725
v 21.145700 0.139341 -3.566725
v 21.145700 -0.139341 -3.566725
v 21.637827 -0.139341 -3.566725
v 22.129953 -0.139341 -3.566725
v 22.622080 -0.139341 -3.566725
v 23.114208 -0.139341 -3.566725
v 23.606335 -0.139341 -3.566725
v 24.098461 -0.139341 -3.566725
v 24.590588 -0.139341 -3.566725
v 25.082714 -0.139341 -3.566725
v 25.574841 -0.139341 -3.566725
v 21.145700 0.139341 3.566725
v 21.637827 0.139341 3.566725
v 22.129953 0.139341 3.566725
v 22.622080 0.139341 3.566725
v 23.114208 0.139341 3.566725
v 23.606335 0.139341 3.566725
v 24.098461 0.139341 3.566725
v 24.590588 0.139341 3.566725
v 25.082714 0.139341 3.566725
v 25.574841 0.139341 3.566725
v 25.574841 -0.139341 3.566725
v 25.082714 -0.139341 3.566725
v 24.590588 -0.139341 3.566725
v 24.098461 -0.139341 3.566725
v 23.606335 -0.139341 3.566725
v 23.114208 -0.139341 3.566725
v 22.622080 -0.139341 3.566725
v 22.129953 -0.139341 3.566725
v 21.637827 -0.139341 3.566725
v 21.145700 -0.139341 3.566725
v 26.066967 0.139341 3.566725
v 26.066967 -0.139341 3.566725
v 26.066967 0.139341 -3.566725
v 26.066967 -0.139341 -3.566725
v 31.480360 0.139341 3.566725
v 31.480360 -0.139341 3.566725
v 31.480360 0.139341 -3.566725
v 31.480360 -0.139341 -3.566725
v 30.988234 0.139341 -3.566725
v 30.496107 0.139341 -3.566725
v 30.003981 0.139341 -3.566725
v 29.511854 0.139341 -3.566725
v 29.019728 0.139341 -3.566725
v 28.527599 0.139341 -3.566725
v 28.035473 0.139341 -3.566725
v 27.543346 0.139341 -3.566725
v 27.051220 0.139341 -3.566725
v 26.559093 0.139341 -3.566725
v 26.559093 -0.139341 -3.566725
v 27.051220 -0.139341 -3.566725
v 27.543346 -0.139341 -3.566725
v 28.035473 -0.139341 -3.566725
v 28.527601 -0.139341 -3.566725
v 29.019728 -0.139341 -3.566725
v 29.511854 -0.139341 -3.566725
v 30.003981 -0.139341 -3.566725
v 30.496107 -0.139341 -3.566725
v 30.988234 -0.139341 -3.566725
v 26.559093 0.139341 3.566725
v 27.051220 0.139341 3.566725
v 27.543346 0.139341 3.566725
v 28.035473 0.139341 3.566725
v 28.527601 0.139341 3.566725
v 29.019728 0.139341 3.566725
v 29.511854 0.139341 3.566725
v 30.003981 0.139341 3.566725
v 30.496107 0.139341 3.566725
v 30.988234 0.139341 3.566725
v 30.988234 -0.139341 3.566725
v 30.496107 -0.139341 3.566725
v 30.003981 -0.139341 3.566725
v 29.511854 -0.139341 3.566725
v 29.019728 -0.139341 3.566725
v 28.527599 -0.139341 3.566725
v 28.035473 -0.139341 3.566725
v 27.543346 -0.139341 3.566725
v 27.051220 -0.139341 3.566725
v 26.559093 -0.139341 3.566725
v 31.480362 0.139341 3.566725
v 31.480362 -0.139341 3.566725
v 31.480362 0.139341 -3.566725
v 31.480362 -0.139341 -3.566725
v 36.893757 0.139341 3.566725
v 36.893757 -0.139341 3.566725
v 36.893757 0.139341 -3.566725
v 36.893757 -0.139341 -3.566725
v 36.401630 0.139341 -3.566725
v 35.909500 0.139341 -3.566725
v 35.417374 0.139341 -3.566725
v 34.925247 0.139341 -3.566725
v 34.433121 0.139341 -3.566725
v 33.940994 0.139341 -3.566725
v 33.448868 0.139341 -3.566725
v 32.956741 0.139341 -3.566725
v 32.464615 0.139341 -3.566725
v 31.972488 0.139341 -3.566725
v 31.972488 -0.139341 -3.566725
v 32.464615 -0.139341 -3.566725
v 32.956741 -0.139341 -3.566725
v 33.448868 -0.139341 -3.566725
v 33.940994 -0.139341 -3.566725
v 34.433121 -0.139341 -3.566725
v 34.925247 -0.139341 -3.566725
v 35.417374 -0.139341 -3.566725
v 35.909500 -0.139341 -3.566725
v 36.401630 -0.139341 -3.566725
v 31.972488 0.139341 3.566725
v 32.464615 0.139341 3.566725
v 32.956741 0.139341 3.566725
v 33.448868 0.139341 3.566725
v 33.940994 0.139341 3.566725
v 34.433121 0.139341 3.566725
v 34.925247 0.139341 3.566725
v 35.417374 0.139341 3.566725
v 35.909500 0.139341 3.566725
v 36.401630 0.139341 3.566725
v 36.401630 -0.139341 3.566725
v 35.909500 -0.139341 3.566725
v 35.417374 -0.139341 3.566725
v 34.925247 -0.139341 3.566725
v 34.433121 -0.139341 3.566725
v 33.940994 -0.139341 3.566725
v 33.448868 -0.139341 3.566725
v 32.956741 -0.139341 3.566725
v 32.464615 -0.139341 3.566725
v 31.972488 -0.139341 3.566725
v 36.893757 0.139341 3.566725
v 36.893757 -0.139341 3.566725
v 36.893757 0.139341 -3.566725
v 36.893757 -0.139341 -3.566725
v 42.307152 0.139341 3.566725
v 42.307152 -0.139341 3.566725
v 42.307152 0.139341 -3.566725
v 42.307152 -0.139341 -3.566725
v 41.815025 0.139341 -3.566725
v 41.322899 0.139341 -3.566725
v 40.830769 0.139341 -3.566725
v 40.338642 0.139341 -3.566725
v 39.846516 0.139341 -3.566725
v 39.354389 0.139341 -3.566725
v 38.862263 0.139341 -3.566725
v 38.370136 0.139341 -3.566725
v 37.878010 0.139341 -3.566725
v 37.385883 0.139341 -3.566725
v 37.385883 -0.139341 -3.566725
v 37.878010 -0.139341 -3.566725
v 38.370136 -0.139341 -3.566725
v 38.862263 -0.139341 -3.566725
v 39.354389 -0.139341 -3.566725
v 39.846516 -0.139341 -3.566725
v 40.338642 -0.139341 -3.566725
v 40.830769 -0.139341 -3.566725
v 41.322899 -0.139341 -3.566725
v 41.815025 -0.139341 -3.566725
v 37.385883 0.139341 3.566725
v 37.878010 0.139341 3.566725
v 38.370136 0.139341 3.566725
v 38.862263 0.139341 3.566725
v 39.354389 0.139341 3.566725
v 39.846516 0.139341 3.566725
v 40.338642 0.139341 3.566725
v 40.830769 0.139341 3.566725
v 41.322899 0.139341 3.566725
v 41.815025 0.139341 3.566725
v 41.815025 -0.139341 3.566725
v 41.322899 -0.139341 3.566725
v 40.830769 -0.139341 3.566725
v 40.338642 -0.139341 3.566725
v 39.846516 -0.139341 3.566725
v 39.354389 -0.139341 3.566725
v 38.862263 -0.139341 3.566725
v 38.370136 -0.139341 3.566725
v 37.878010 -0.139341 3.566725
v 37.385883 -0.139341 3.566725
vn -1.0000 -0.0000 -0.0000
vn -0.0000 -0.0000 -1.0000
vn 1.0000 -0.0000 -0.0000
vn -0.0000 -0.0000 1.0000
vn -0.0000 1.0000 -0.0000
vn -0.0000 -1.0000 -0.0000
vt 0.980466 0.000000
vt 0.980466 1.000000
vt 1.019534 1.000000
vt 1.019534 0.000000
vt 0.980466 0.810449
vt 0.980466 0.879437
vt 1.019534 0.879437
vt 1.019534 0.810449
vt 0.980466 0.189551
vt 0.980466 0.120563
vt 1.019534 0.120563
vt 1.019534 0.189551
vt 0.000000 0.810449
vt 1.000000 0.810449
vt 1.000000 0.879437
vt 0.000000 0.879437
vt 0.000000 0.189551
vt 1.000000 0.189551
vt 1.000000 0.120563
vt 0.000000 0.120563
vt 1.000000 0.741460
vt 0.000000 0.741460
vt 1.000000 0.672472
vt 0.000000 0.672472
vt 1.000000 0.603483
vt 0.000000 0.603483
vt 1.000000 0.534494
vt 0.000000 0.534494
vt 1.000000 0.465506
vt 0.000000 0.465506
vt 1.000000 0.396517
vt 0.000000 0.396517
vt 1.000000 0.327529
vt 0.000000 0.327529
vt 1.000000 0.258540
vt 0.000000 0.258540
vt 1.000000 0.327529
vt 0.000000 0.327529
vt 1.000000 0.465506
vt 0.980466 0.741460
vt 1.019534 0.741460
vt 0.980466 0.672472
vt 1.019534 0.672472
vt 0.980466 0.603483
vt 1.019534 0.603483
vt 0.980466 0.534494
vt 1.019534 0.534494
vt 0.980466 0.465506
vt 1.019534 0.465506
vt 0.980466 0.396517
vt 1.019534 0.396517
vt 0.980466 0.327529
vt 1.019534 0.327529
vt 0.980466 0.258540
vt 1.019534 0.258540
vt 0.980466 0.327529
vt 1.019534 0.327529
vt 0.980466 0.465506
vt 1.019534 0.465506
s 0
usemtl Material.001
f 62/1/1 64/2/1 65/3/1 63/4/1
f 70/5/2 68/6/2 69/7/2 89/8/2
f 68/2/3 66/1/3 67/4/3 69/3/3
f 90/9/4 62/10/4 63/11/4 109/12/4
f 70/13/5 99/14/5 66/15/5 68/16/5
f 80/17/6 109/18/6 63/19/6 65/20/6
f 69/16/6 67/15/6 100/14/6 89/13/6
f 89/13/6 100/14/6 101/21/6 88/22/6
f 88/22/6 101/21/6 102/23/6 87/24/6
f 87/24/6 102/23/6 103/25/6 86/26/6
f 86/26/6 103/25/6 104/27/6 85/28/6
f 85/28/6 104/27/6 105/29/6 84/30/6
f 84/30/6 105/29/6 106/31/6 83/32/6
f 83/32/6 106/31/6 107/33/6 82/34/6
f 82/34/6 107/33/6 108/35/6 81/36/6
f 81/36/6 108/35/6 109/18/6 80/17/6
f 64/20/5 62/19/5 90/18/5 79/17/5
f 79/17/5 90/18/5 91/35/5 78/36/5
f 78/36/5 91/35/5 92/37/5 77/38/5
f 77/38/5 92/37/5 93/31/5 76/32/5
f 76/32/5 93/31/5 94/39/5 75/30/5
f 75/30/5 94/39/5 95/27/5 74/28/5
f 74/28/5 95/27/5 96/25/5 73/26/5
f 73/26/5 96/25/5 97/23/5 72/24/5
f 72/24/5 97/23/5 98/21/5 71/22/5
f 71/22/5 98/21/5 99/14/5 70/13/5
f 66/6/4 99/5/4 100/8/4 67/7/4
f 99/5/4 98/40/4 101/41/4 100/8/4
f 98/40/4 97/42/4 102/43/4 101/41/4
f 97/42/4 96/44/4 103/45/4 102/43/4
f 96/44/4 95/46/4 104/47/4 103/45/4
f 95/46/4 94/48/4 105/49/4 104/47/4
f 94/48/4 93/50/4 106/51/4 105/49/4
f 93/50/4 92/52/4 107/53/4 106/51/4
f 92/52/4 91/54/4 108/55/4 107/53/4
f 91/54/4 90/9/4 109/12/4 108/55/4
f 64/10/2 79/9/2 80/12/2 65/11/2
f 79/9/2 78/54/2 81/55/2 80/12/2
f 78/54/2 77/56/2 82/57/2 81/55/2
f 77/56/2 76/50/2 83/51/2 82/57/2
f 76/50/2 75/58/2 84/59/2 83/51/2
f 75/58/2 74/46/2 85/47/2 84/59/2
f 74/46/2 73/44/2 86/45/2 85/47/2
f 73/44/2 72/42/2 87/43/2 86/45/2
f 72/42/2 71/40/2 88/41/2 87/43/2
f 71/40/2 70/5/2 89/8/2 88/41/2
f 110/1/1 112/2/1 113/3/1 111/4/1
f 118/5/2 116/6/2 117/7/2 137/8/2
f 116/2/3 114/1/3 115/4/3 117/3/3
f 138/9/4 110/10/4 111/11/4 157/12/4
f 118/13/5 147/14/5 114/15/5 116/16/5
f 128/17/6 157/18/6 111/19/6 113/20/6
f 117/16/6 115/15/6 148/14/6 137/13/6
f 137/13/6 148/14/6 149/21/6 136/22/6
f 136/22/6 149/21/6 150/23/6 135/24/6
f 135/24/6 150/23/6 151/25/6 134/26/6
f 134/26/6 151/25/6 152/27/6 133/28/6
f 133/28/6 152/27/6 153/29/6 132/30/6
f 132/30/6 153/29/6 154/31/6 131/32/6
f 131/32/6 154/31/6 155/33/6 130/34/6
f 130/34/6 155/33/6 156/35/6 129/36/6
f 129/36/6 156/35/6 157/18/6 128/17/6
f 112/20/5 110/19/5 138/18/5 127/17/5
f 127/17/5 138/18/5 139/35/5 126/36/5
f 126/36/5 139/35/5 140/37/5 125/38/5
f 125/38/5 140/37/5 141/31/5 124/32/5
f 124/32/5 141/31/5 142/39/5 123/30/5
f 123/30/5 142/39/5 143/27/5 122/28/5
f 122/28/5 143/27/5 144/25/5 121/26/5
f 121/26/5 144/25/5 145/23/5 120/24/5
f 120/24/5 145/23/5 146/21/5 119/22/5
f 119/22/5 146/21/5 147/14/5 118/13/5
f 114/6/4 147/5/4 148/8/4 115/7/4
f 147/5/4 146/40/4 149/41/4 148/8/4
f 146/40/4 145/42/4 150/43/4 149/41/4
f 145/42/4 144/44/4 151/45/4 150/43/4
f 144/44/4 143/46/4 152/47/4 151/45/4
f 143/46/4 142/48/4 153/49/4 152/47/4
f 142/48/4 141/50/4 154/51/4 153/49/4
f 141/50/4 140/52/4 155/53/4 154/51/4
f 140/52/4 139/54/4 156/55/4 155/53/4
f 139/54/4 138/9/4 157/12/4 156/55/4
f 112/10/2 127/9/2 128/12/2 113/11/2
f 127/9/2 126/54/2 129/55/2 128/12/2
f 126/54/2 125/56/2 130/57/2 129/55/2
f 125/56/2 124/50/2 131/51/2 130/57/2
f 124/50/2 123/58/2 132/59/2 131/51/2
f 123/58/2 122/46/2 133/47/2 132/59/2
f 122/46/2 121/44/2 134/45/2 133/47/2
f 121/44/2 120/42/2 135/43/2 134/45/2
f 120/42/2 119/40/2 136/41/2 135/43/2
f 119/40/2 118/5/2 137/8/2 136/41/2
f 158/1/1 160/2/1 161/3/1 159/4/1
f 166/5/2 164/6/2 165/7/2 185/8/2
f 164/2/3 162/1/3 163/4/3 165/3/3
f 186/9/4 158/10/4 159/11/4 205/12/4
f 166/13/5 195/14/5 162/15/5 164/16/5
f 176/17/6 205/18/6 159/19/6 161/20/6
f 165/16/6 163/15/6 196/14/6 185/13/6
f 185/13/6 196/14/6 197/21/6 184/22/6
f 184/22/6 197/21/6 198/23/6 183/24/6
f 183/24/6 198/23/6 199/25/6 182/26/6
f 182/26/6 199/25/6 200/27/6 181/28/6
f 181/28/6 200/27/6 201/29/6 180/30/6
f 180/30/6 201/29/6 202/31/6 179/32/6
f 179/32/6 202/31/6 203/33/6 178/34/6
f 178/34/6 203/33/6 204/35/6 177/36/6
f 177/36/6 204/35/6 205/18/6 176/17/6
f 160/20/5 158/19/5 186/18/5 175/17/5
f 175/17/5 186/18/5 187/35/5 174/36/5
f 174/36/5 187/35/5 188/37/5 173/38/5
f 173/38/5 188/37/5 189/31/5 172/32/5
f 172/32/5 189/31/5 190/39/5 171/30/5
f 171/30/5 190/39/5 191/27/5 170/28/5
f 170/28/5 191/27/5 192/25/5 169/26/5
f 169/26/5 192/25/5 193/23/5 168/24/5
f 168/24/5 193/23/5 194/21/5 167/22/5
f 167/22/5 194/21/5 195/14/5 166/13/5
f 162/6/4 195/5/4 196/8/4 163/7/4
f 195/5/4 194/40/4 197/41/4 196/8/4
f 194/40/4 193/42/4 198/43/4 197/41/4
f 193/42/4 192/44/4 199/45/4 198/43/4
f 192/44/4 191/46/4 200/47/4 199/45/4
f 191/46/4 190/48/4 201/49/4 200/47/4
f 190/48/4 189/50/4 202/51/4 201/49/4
f 189/50/4 188/52/4 203/53/4 202/51/4
f 188/52/4 187/54/4 204/55/4 203/53/4
f 187/54/4 186/9/4 205/12/4 204/55/4
f 160/10/2 175/9/2 176/12/2 161/11/2
f 175/9/2 174/54/2 177/55/2 176/12/2
f 174/54/2 173/56/2 178/57/2 177/55/2
f 173/56/2 172/50/2 179/51/2 178/57/2
f 172/50/2 171/58/2 180/59/2 179/51/2
f 171/58/2 170/46/2 181/47/2 180/59/2
f 170/46/2 169/44/2 182/45/2 181/47/2
f 169/44/2 168/42/2 183/43/2 182/45/2
f 168/42/2 167/40/2 184/41/2 183/43/2
f 167/40/2 166/5/2 185/8/2 184/41/2
f 206/1/1 208/2/1 209/3/1 207/4/1
f 214/5/2 212/6/2 213/7/2 233/8/2
f 212/2/3 210/1/3 211/4/3 213/3/3
f 234/9/4 206/10/4 207/11/4 253/12/4
f 214/13/5 243/14/5 210/15/5 212/16/5
f 224/17/6 253/18/6 207/19/6 209/20/6
f 213/16/6 211/15/6 244/14/6 233/13/6
f 233/13/6 244/14/6 245/21/6 232/22/6
f 232/22/6 245/21/6 246/23/6 231/24/6
f 231/24/6 246/23/6 247/25/6 230/26/6
f 230/26/6 247/25/6 248/27/6 229/28/6
f 229/28/6 248/27/6 249/29/6 228/30/6
f 228/30/6 249/29/6 250/31/6 227/32/6
f 227/32/6 250/31/6 251/33/6 226/34/6
f 226/34/6 251/33/6 252/35/6 225/36/6
f 225/36/6 252/35/6 253/18/6 224/17/6
f 208/20/5 206/19/5 234/18/5 223/17/5
f 223/17/5 234/18/5 235/35/5 222/36/5
f 222/36/5 235/35/5 236/37/5 221/38/5
f 221/38/5 236/37/5 237/31/5 220/32/5
f 220/32/5 237/31/5 238/39/5 219/30/5
f 219/30/5 238/39/5 239/27/5 218/28/5
f 218/28/5 239/27/5 240/25/5 217/26/5
f 217/26/5 240/25/5 241/23/5 216/24/5
f 216/24/5 241/23/5 242/21/5 215/22/5
f 215/22/5 242/21/5 243/14/5 214/13/5
f 210/6/4 243/5/4 244/8/4 211/7/4
f 243/5/4 242/40/4 245/41/4 244/8/4
f 242/40/4 241/42/4 246/43/4 245/41/4
f 241/42/4 240/44/4 247/45/4 246/43/4
f 240/44/4 239/46/4 248/47/4 247/45/4
f 239/46/4 238/48/4 249/49/4 248/47/4
f 238/48/4 237/50/4 250/51/4 249/49/4
f 237/50/4 236/52/4 251/53/4 250/51/4
f 236/52/4 235/54/4 252/55/4 251/53/4
f 235/54/4 234/9/4 253/12/4 252/55/4
f 208/10/2 223/9/2 224/12/2 209/11/2
f 223/9/2 222/54/2 225/55/2 224/12/2
f 222/54/2 221/56/2 226/57/2 225/55/2
f 221/56/2 220/50/2 227/51/2 226/57/2
f 220/50/2 219/58/2 228/59/2 227/51/2
f 219/58/2 218/46/2 229/47/2 228/59/2
f 218/46/2 217/44/2 230/45/2 229/47/2
f 217/44/2 216/42/2 231/43/2 230/45/2
f 216/42/2 215/40/2 232/41/2 231/43/2
f 215/40/2 214/5/2 233/8/2 232/41/2
f 254/1/1 256/2/1 257/3/1 255/4/1
f 262/5/2 260/6/2 261/7/2 281/8/2
f 260/2/3 258/1/3 259/4/3 261/3/3
f 282/9/4 254/10/4 255/11/4 301/12/4
f 262/13/5 291/14/5 258/15/5 260/16/5
f 272/17/6 301/18/6 255/19/6 257/20/6
f 261/16/6 259/15/6 292/14/6 281/13/6
f 281/13/6 292/14/6 293/21/6 280/22/6
f 280/22/6 293/21/6 294/23/6 279/24/6
f 279/24/6 294/23/6 295/25/6 278/26/6
f 278/26/6 295/25/6 296/27/6 277/28/6
f 277/28/6 296/27/6 297/29/6 276/30/6
f 276/30/6 297/29/6 298/31/6 275/32/6
f 275/32/6 298/31/6 299/33/6 274/34/6
f 274/34/6 299/33/6 300/35/6 273/36/6
f 273/36/6 300/35/6 301/18/6 272/17/6
f 256/20/5 254/19/5 282/18/5 271/17/5
f 271/17/5 282/18/5 283/35/5 270/36/5
f 270/36/5 283/35/5 284/37/5 269/38/5
f 269/38/5 284/37/5 285/31/5 268/32/5
f 268/32/5 285/31/5 286/39/5 267/30/5
f 267/30/5 286/39/5 287/27/5 266/28/5
f 266/28/5 287/27/5 288/25/5 265/26/5
f 265/26/5 288/25/5 289/23/5 264/24/5
f 264/24/5 289/23/5 290/21/5 263/22/5
f 263/22/5 290/21/5 291/14/5 262/13/5
f 258/6/4 291/5/4 292/8/4 259/7/4
f 291/5/4 290/40/4 293/41/4 292/8/4
f 290/40/4 289/42/4 294/43/4 293/41/4
f 289/42/4 288/44/4 295/45/4 294/43/4
f 288/44/4 287/46/4 296/47/4 295/45/4
f 287/46/4 286/48/4 297/49/4 296/47/4
f 286/48/4 285/50/4 298/51/4 297/49/4
f 285/50/4 284/52/4 299/53/4 298/51/4
f 284/52/4 283/54/4 300/55/4 299/53/4
f 283/54/4 282/9/4 301/12/4 300/55/4
f 256/10/2 271/9/2 272/12/2 257/11/2
f 271/9/2 270/54/2 273/55/2 272/12/2
f 270/54/2 269/56/2 274/57/2 273/55/2
f 269/56/2 268/50/2 275/51/2 274/57/2
f 268/50/2 267/58/2 276/59/2 275/51/2
f 267/58/2 266/46/2 277/47/2 276/59/2
f 266/46/2 265/44/2 278/45/2 277/47/2
f 265/44/2 264/42/2 279/43/2 278/45/2
f 264/42/2 263/40/2 280/41/2 279/43/2
f 263/40/2 262/5/2 281/8/2 280/41/2
f 302/1/1 304/2/1 305/3/1 303/4/1
f 310/5/2 308/6/2 309/7/2 329/8/2
f 308/2/3 306/1/3 307/4/3 309/3/3
f 330/9/4 302/10/4 303/11/4 349/12/4
f 310/13/5 339/14/5 306/15/5 308/16/5
f 320/17/6 349/18/6 303/19/6 305/20/6
f 309/16/6 307/15/6 340/14/6 329/13/6
f 329/13/6 340/14/6 341/21/6 328/22/6
f 328/22/6 341/21/6 342/23/6 327/24/6
f 327/24/6 342/23/6 343/25/6 326/26/6
f 326/26/6 343/25/6 344/27/6 325/28/6
f 325/28/6 344/27/6 345/29/6 324/30/6
f 324/30/6 345/29/6 346/31/6 323/32/6
f 323/32/6 346/31/6 347/33/6 322/34/6
f 322/34/6 347/33/6 348/35/6 321/36/6
f 321/36/6 348/35/6 349/18/6 320/17/6
f 304/20/5 302/19/5 330/18/5 319/17/5
f 319/17/5 330/18/5 331/35/5 318/36/5
f 318/36/5 331/35/5 332/37/5 317/38/5
f 317/38/5 332/37/5 333/31/5 316/32/5
f 316/32/5 333/31/5 334/39/5 315/30/5
f 315/30/5 334/39/5 335/27/5 314/28/5
f 314/28/5 335/27/5 336/25/5 313/26/5
f 313/26/5 336/25/5 337/23/5 312/24/5
f 312/24/5 337/23/5 338/21/5 311/22/5
f 311/22/5 338/21/5 339/14/5 310/13/5
f 306/6/4 339/5/4 340/8/4 307/7/4
f 339/5/4 338/40/4 341/41/4 340/8/4
f 338/40/4 337/42/4 342/43/4 341/41/4
f 337/42/4 336/44/4 343/45/4 342/43/4
f 336/44/4 335/46/4 344/47/4 343/45/4
f 335/46/4 334/48/4 345/49/4 344/47/4
f 334/48/4 333/50/4 346/51/4 345/49/4
f 333/50/4 332/52/4 347/53/4 346/51/4
f 332/52/4 331/54/4 348/55/4 347/53/4
f 331/54/4 330/9/4 349/12/4 348/55/4
f 304/10/2 319/9/2 320/12/2 305/11/2
f 319/9/2 318/54/2 321/55/2 320/12/2
f 318/54/2 317/56/2 322/57/2 321/55/2
f 317/56/2 316/50/2 323/51/2 322/57/2
f 316/50/2 315/58/2 324/59/2 323/51/2
f 315/58/2 314/46/2 325/47/2 324/59/2
f 314/46/2 313/44/2 326/45/2 325/47/2
f 313/44/2 312/42/2 327/43/2 326/45/2
f 312/42/2 311/40/2 328/41/2 327/43/2
f 311/40/2 310/5/2 329/8/2 328/41/2
f 350/1/1 352/2/1 353/3/1 351/4/1
f 358/5/2 356/6/2 357/7/2 377/8/2
f 356/2/3 354/1/3 355/4/3 357/3/3
f 378/9/4 350/10/4 351/11/4 397/12/4
f 358/13/5 387/14/5 354/15/5 356/16/5
f 368/17/6 397/18/6 351/19/6 353/20/6
f 357/16/6 355/15/6 388/14/6 377/13/6
f 377/13/6 388/14/6 389/21/6 376/22/6
f 376/22/6 389/21/6 390/23/6 375/24/6
f 375/24/6 390/23/6 391/25/6 374/26/6
f 374/26/6 391/25/6 392/27/6 373/28/6
f 373/28/6 392/27/6 393/29/6 372/30/6
f 372/30/6 393/29/6 394/31/6 371/32/6
f 371/32/6 394/31/6 395/33/6 370/34/6
f 370/34/6 395/33/6 396/35/6 369/36/6
f 369/36/6 396/35/6 397/18/6 368/17/6
f 352/20/5 350/19/5 378/18/5 367/17/5
f 367/17/5 378/18/5 379/35/5 366/36/5
f 366/36/5 379/35/5 380/37/5 365/38/5
f 365/38/5 380/37/5 381/31/5 364/32/5
f 364/32/5 381/31/5 382/39/5 363/30/5
f 363/30/5 382/39/5 383/27/5 362/28/5
f 362/28/5 383/27/5 384/25/5 361/26/5
f 361/26/5 384/25/5 385/23/5 360/24/5
f 360/24/5 385/23/5 386/21/5 359/22/5
f 359/22/5 386/21/5 387/14/5 358/13/5
f 354/6/4 387/5/4 388/8/4 355/7/4
f 387/5/4 386/40/4 389/41/4 388/8/4
f 386/40/4 385/42/4 390/43/4 389/41/4
f 385/42/4 384/44/4 391/45/4 390/43/4
f 384/44/4 383/46/4 392/47/4 391/45/4
f 383/46/4 382/48/4 393/49/4 392/47/4
f 382/48/4 381/50/4 394/51/4 393/49/4
f 381/50/4 380/52/4 395/53/4 394/51/4
f 380/52/4 379/54/4 396/55/4 395/53/4
f 379/54/4 378/9/4 397/12/4 396/55/4
f 352/10/2 367/9/2 368/12/2 353/11/2
f 367/9/2 366/54/2 369/55/2 368/12/2
f 366/54/2 365/56/2 370/57/2 369/55/2
f 365/56/2 364/50/2 371/51/2 370/57/2
f 364/50/2 363/58/2 372/59/2 371/51/2
f 363/58/2 362/46/2 373/47/2 372/59/2
f 362/46/2 361/44/2 374/45/2 373/47/2
f 361/44/2 360/42/2 375/43/2 374/45/2
f 360/42/2 359/40/2 376/41/2 375/43/2
f 359/40/2 358/5/2 377/8/2 376/41/2
f 398/1/1 400/2/1 401/3/1 399/4/1
f 406/5/2 404/6/2 405/7/2 425/8/2
f 404/2/3 402/1/3 403/4/3 405/3/3
f 426/9/4 398/10/4 399/11/4 445/12/4
f 406/13/5 435/14/5 402/15/5 404/16/5
f 416/17/6 445/18/6 399/19/6 401/20/6
f 405/16/6 403/15/6 436/14/6 425/13/6
f 425/13/6 436/14/6 437/21/6 424/22/6
f 424/22/6 437/21/6 438/23/6 423/24/6
f 423/24/6 438/23/6 439/25/6 422/26/6
f 422/26/6 439/25/6 440/27/6 421/28/6
f 421/28/6 440/27/6 441/29/6 420/30/6
f 420/30/6 441/29/6 442/31/6 419/32/6
f 419/32/6 442/31/6 443/33/6 418/34/6
f 418/34/6 443/33/6 444/35/6 417/36/6
f 417/36/6 444/35/6 445/18/6 416/17/6
f 400/20/5 398/19/5 426/18/5 415/17/5
f 415/17/5 426/18/5 427/35/5 414/36/5
f 414/36/5 427/35/5 428/37/5 413/38/5
f 413/38/5 428/37/5 429/31/5 412/32/5
f 412/32/5 429/31/5 430/39/5 411/30/5
f 411/30/5 430/39/5 431/27/5 410/28/5
f 410/28/5 431/27/5 432/25/5 409/26/5
f 409/26/5 432/25/5 433/23/5 408/24/5
f 408/24/5 433/23/5 434/21/5 407/22/5
f 407/22/5 434/21/5 435/14/5 406/13/5
f 402/6/4 435/5/4 436/8/4 403/7/4
f 435/5/4 434/40/4 437/41/4 436/8/4
f 434/40/4 433/42/4 438/43/4 437/41/4
f 433/42/4 432/44/4 439/45/4 438/43/4
f 432/44/4 431/46/4 440/47/4 439/45/4
f 431/46/4 430/48/4 441/49/4 440/47/4
f 430/48/4 429/50/4 442/51/4 441/49/4
f 429/50/4 428/52/4 443/53/4 442/51/4
f 428/52/4 427/54/4 444/55/4 443/53/4
f 427/54/4 426/9/4 445/12/4 444/55/4
f 400/10/2 415/9/2 416/12/2 401/11/2
f 415/9/2 414/54/2 417/55/2 416/12/2
f 414/54/2 413/56/2 418/57/2 417/55/2
f 413/56/2 412/50/2 419/51/2 418/57/2
f 412/50/2 411/58/2 420/59/2 419/51/2
f 411/58/2 410/46/2 421/47/2 420/59/2
f 410/46/2 409/44/2 422/45/2 421/47/2
f 409/44/2 408/42/2 423/43/2 422/45/2
f 408/42/2 407/40/2 424/41/2 423/43/2
f 407/40/2 406/5/2 425/8/2 424/41/2
